<svg xmlns="http://www.w3.org/2000/svg" width="1200" height="700" viewBox="0 0 1200 700">
  <defs><marker id="arrow" markerWidth="12" markerHeight="12" refX="10" refY="5" orient="auto"><path d="M0,0 L10,5 L0,10 z" fill="#1769d2"/></marker></defs>
  <style>
    text{font-family:Arial,'Segoe UI',sans-serif;fill:#111827} .title{font-size:34px;font-weight:700;fill:#0b4db8} .panel-title{font-size:31px;font-weight:700;fill:#0b4db8} .name{font-size:22px;font-weight:600} .type{font-size:20px;fill:#6b7280} .value{font-size:22px;font-weight:600} .compact{font-size:16px;font-weight:600} .address{font-size:23px;font-weight:700;fill:#b42318} .small{font-size:18px;fill:#4b5563} .object-title{font-size:22px;font-weight:700} .box{fill:white;stroke:#111111;stroke-width:3} .panel{fill:#f8fafc;stroke:#111111;stroke-width:3} .divider{stroke:#8b8f97;stroke-width:2.5;stroke-dasharray:8 8} .line{stroke:#111111;stroke-width:3} .arrow{fill:none;stroke:#1769d2;stroke-width:4}
  </style>
  <rect width="100%" height="100%" fill="white"/><text x="600" y="48" class="title" text-anchor="middle">Переменная player и объект Player</text><rect x="45" y="82" width="430" height="500" rx="16" class="panel"/><text x="260" y="125" class="panel-title" text-anchor="middle">Стек</text><rect x="585" y="82" width="570" height="500" rx="16" class="panel"/><text x="870" y="125" class="panel-title" text-anchor="middle">Куча</text><text x="90" y="240" class="name" text-anchor="start">player</text><rect x="90" y="250" width="340" height="76" rx="0" class="box"/><line x1="245" y1="250" x2="245" y2="326" class="divider"/><text x="167.5" y="295" class="type" text-anchor="middle">Player ref</text><text x="337.5" y="296" class="address" text-anchor="middle">0xA1</text><text x="650" y="228" class="address" text-anchor="start">0xA1</text><text x="865.5999999999999" y="228" class="name" text-anchor="middle">Name</text><text x="1015.1999999999999" y="228" class="name" text-anchor="middle">Level</text><rect x="650" y="240" width="440" height="92" rx="0" class="box"/><line x1="790.8" y1="240" x2="790.8" y2="332" class="divider"/><text x="720.4" y="293" class="type" text-anchor="middle">Player</text><text x="865.5999999999999" y="294" class="address" text-anchor="middle">0xB1</text><line x1="940.4" y1="240" x2="940.4" y2="332" class="line"/><text x="1015.1999999999999" y="294" class="value" text-anchor="middle">12</text><text x="765" y="443" class="address" text-anchor="start">0xB1</text><text x="920" y="443" class="name" text-anchor="middle">значение</text><rect x="765" y="455" width="210" height="72" rx="0" class="box"/><line x1="865" y1="455" x2="865" y2="527" class="divider"/><text x="815" y="498" class="type" text-anchor="middle">string</text><text x="920" y="499" class="value" text-anchor="middle">&quot;Artemis&quot;</text><path d="M435 296 L635 286" class="arrow" marker-end="url(#arrow)"/><path d="M870 345 L1120 345 L1120 491 L990 491" class="arrow" marker-end="url(#arrow)"/></svg>