<svg xmlns="http://www.w3.org/2000/svg" width="1200" height="700" viewBox="0 0 1200 700">
  <defs><marker id="arrow" markerWidth="12" markerHeight="12" refX="10" refY="5" orient="auto"><path d="M0,0 L10,5 L0,10 z" fill="#1769d2"/></marker></defs>
  <style>
    text{font-family:Arial,'Segoe UI',sans-serif;fill:#111827} .title{font-size:34px;font-weight:700;fill:#0b4db8} .panel-title{font-size:31px;font-weight:700;fill:#0b4db8} .name{font-size:22px;font-weight:600} .type{font-size:20px;fill:#6b7280} .value{font-size:22px;font-weight:600} .compact{font-size:16px;font-weight:600} .address{font-size:23px;font-weight:700;fill:#b42318} .small{font-size:18px;fill:#4b5563} .object-title{font-size:22px;font-weight:700} .box{fill:white;stroke:#111111;stroke-width:3} .panel{fill:#f8fafc;stroke:#111111;stroke-width:3} .divider{stroke:#8b8f97;stroke-width:2.5;stroke-dasharray:8 8} .line{stroke:#111111;stroke-width:3} .arrow{fill:none;stroke:#1769d2;stroke-width:4}
  </style>
  <rect width="100%" height="100%" fill="white"/><text x="600" y="48" class="title" text-anchor="middle">Ссылка на объект Server</text><rect x="55" y="80" width="480" height="500" rx="16" class="panel"/><text x="295" y="123" class="panel-title" text-anchor="middle">Стек</text><rect x="665" y="80" width="480" height="500" rx="16" class="panel"/><text x="905" y="123" class="panel-title" text-anchor="middle">Куча</text><text x="105" y="235" class="name" text-anchor="start">server</text><rect x="105" y="245" width="380" height="76" rx="0" class="box"/><line x1="280" y1="245" x2="280" y2="321" class="divider"/><text x="192.5" y="290" class="type" text-anchor="middle">Server ref</text><text x="382.5" y="291" class="address" text-anchor="middle">0xA1</text><text x="735" y="233" class="address" text-anchor="start">0xA1</text><text x="959.4" y="233" class="name" text-anchor="middle">Name</text><rect x="735" y="245" width="340" height="82" rx="0" class="box"/><line x1="843.8" y1="245" x2="843.8" y2="327" class="divider"/><text x="789.4" y="293" class="type" text-anchor="middle">Server</text><text x="959.4" y="294" class="address" text-anchor="middle">0xB1</text><text x="785" y="433" class="address" text-anchor="start">0xB1</text><text x="955" y="433" class="name" text-anchor="middle">значение</text><rect x="785" y="445" width="240" height="78" rx="0" class="box"/><line x1="885" y1="445" x2="885" y2="523" class="divider"/><text x="835" y="491" class="type" text-anchor="middle">string</text><text x="955" y="492" class="value" text-anchor="middle">&quot;Aurora&quot;</text><path d="M485 283 L720 283" class="arrow" marker-end="url(#arrow)"/><path d="M970 327 L1100 327 L1100 484 L1040 484" class="arrow" marker-end="url(#arrow)"/></svg>